<?xml version="1.0" encoding="utf-8"?>
<!-- Generator: Adobe Illustrator 15.0.2, SVG Export Plug-In . SVG Version: 6.00 Build 0)  -->
<!DOCTYPE svg PUBLIC "-//W3C//DTD SVG 1.1//EN" "http://www.w3.org/Graphics/SVG/1.1/DTD/svg11.dtd">
<svg version="1.1" id="Layer_1" xmlns="http://www.w3.org/2000/svg" xmlns:xlink="http://www.w3.org/1999/xlink" x="0px" y="0px"
	 width="512px" height="512px" viewBox="0 0 512 512" enable-background="new 0 0 512 512" xml:space="preserve">
<g>
	<path d="M477.867,0H34.134C15.292,0,0,15.292,0,34.134v443.733C0,496.7,15.292,512,34.134,512h443.733
		C496.7,512,512,496.7,512,477.867V34.134C512,15.292,496.7,0,477.867,0z M392.533,375.467H119.467
		c-9.417,0-17.066-7.65-17.066-17.066c0-9.417,7.649-17.067,17.066-17.067h273.066c9.417,0,17.066,7.65,17.066,17.067
		C409.6,367.816,401.95,375.467,392.533,375.467z M392.533,273.066H119.467c-9.417,0-17.066-7.649-17.066-17.066
		s7.649-17.066,17.066-17.066h273.066c9.417,0,17.066,7.649,17.066,17.066S401.95,273.066,392.533,273.066z M392.533,170.667
		H119.467c-9.417,0-17.066-7.65-17.066-17.067c0-9.416,7.649-17.066,17.066-17.066h273.066c9.417,0,17.066,7.65,17.066,17.066
		C409.6,163.017,401.95,170.667,392.533,170.667z"/>
</g>
</svg>
